<svg width="224" height="33" viewBox="0 0 224 33" fill="none" xmlns="http://www.w3.org/2000/svg">
<path d="M216.992 7.42701C218.857 7.42701 220.357 7.93743 221.492 8.95826C222.628 9.96868 223.195 11.5937 223.195 13.8333V25.2239H218.43V15.0208C218.43 13.7708 218.201 12.8281 217.742 12.1926C217.294 11.5572 216.586 11.2395 215.617 11.2395C214.159 11.2395 213.164 11.7343 212.633 12.7239C212.102 13.7135 211.836 15.1406 211.836 17.0051V25.2239H207.07V7.75513H210.711L211.352 9.98951H211.617C211.992 9.38534 212.456 8.89576 213.008 8.52076C213.57 8.14576 214.19 7.86972 214.867 7.69263C215.555 7.51555 216.263 7.42701 216.992 7.42701Z" fill="white"/>
<path d="M195.367 7.42701C196.982 7.42701 198.372 7.73951 199.539 8.36451C200.706 8.97909 201.607 9.87493 202.242 11.052C202.878 12.2291 203.195 13.6666 203.195 15.3645V17.677H191.93C191.982 19.0208 192.383 20.0781 193.133 20.8489C193.893 21.6093 194.945 21.9895 196.289 21.9895C197.404 21.9895 198.424 21.8749 199.352 21.6458C200.279 21.4166 201.232 21.0728 202.211 20.6145V24.302C201.346 24.7291 200.44 25.0416 199.492 25.2395C198.555 25.4374 197.414 25.5364 196.07 25.5364C194.32 25.5364 192.768 25.2135 191.414 24.5676C190.07 23.9218 189.013 22.9374 188.242 21.6145C187.482 20.2916 187.102 18.6249 187.102 16.6145C187.102 14.5728 187.445 12.8749 188.133 11.5208C188.831 10.1562 189.799 9.13534 191.039 8.45826C192.279 7.77076 193.721 7.42701 195.367 7.42701ZM195.398 10.8176C194.471 10.8176 193.701 11.1145 193.086 11.7083C192.482 12.302 192.133 13.2343 192.039 14.5051H198.727C198.716 13.7968 198.586 13.1666 198.336 12.6145C198.096 12.0624 197.732 11.6249 197.242 11.302C196.763 10.9791 196.148 10.8176 195.398 10.8176Z" fill="white"/>
<path d="M167.445 7.75513H172.664L175.961 17.5833C176.065 17.8958 176.154 18.2135 176.227 18.5364C176.299 18.8593 176.362 19.1926 176.414 19.5364C176.466 19.8801 176.508 20.2395 176.539 20.6145H176.633C176.695 20.052 176.779 19.526 176.883 19.0364C176.997 18.5468 177.138 18.0624 177.305 17.5833L180.539 7.75513H185.648L178.258 27.4583C177.81 28.6666 177.227 29.6718 176.508 30.4739C175.789 31.2864 174.961 31.8958 174.023 32.302C173.096 32.7083 172.076 32.9114 170.961 32.9114C170.419 32.9114 169.951 32.8801 169.555 32.8176C169.159 32.7656 168.82 32.7083 168.539 32.6458V28.8645C168.758 28.9166 169.034 28.9635 169.367 29.0051C169.701 29.0468 170.049 29.0676 170.414 29.0676C171.081 29.0676 171.654 28.927 172.133 28.6458C172.612 28.3645 173.013 27.9843 173.336 27.5051C173.659 27.0364 173.914 26.5208 174.102 25.9583L174.383 25.0989L167.445 7.75513Z" fill="white"/>
<path d="M166.008 16.4583C166.008 17.9166 165.81 19.2083 165.414 20.3333C165.029 21.4583 164.461 22.4114 163.711 23.1926C162.971 23.9635 162.076 24.5468 161.023 24.9426C159.982 25.3385 158.805 25.5364 157.492 25.5364C156.263 25.5364 155.133 25.3385 154.102 24.9426C153.081 24.5468 152.19 23.9635 151.43 23.1926C150.68 22.4114 150.096 21.4583 149.68 20.3333C149.273 19.2083 149.07 17.9166 149.07 16.4583C149.07 14.5208 149.414 12.8801 150.102 11.5364C150.789 10.1926 151.768 9.1718 153.039 8.47388C154.31 7.77597 155.826 7.42701 157.586 7.42701C159.221 7.42701 160.669 7.77597 161.93 8.47388C163.201 9.1718 164.195 10.1926 164.914 11.5364C165.643 12.8801 166.008 14.5208 166.008 16.4583ZM153.93 16.4583C153.93 17.6041 154.055 18.5676 154.305 19.3489C154.555 20.1301 154.945 20.7187 155.477 21.1145C156.008 21.5103 156.701 21.7083 157.555 21.7083C158.398 21.7083 159.081 21.5103 159.602 21.1145C160.133 20.7187 160.518 20.1301 160.758 19.3489C161.008 18.5676 161.133 17.6041 161.133 16.4583C161.133 15.302 161.008 14.3437 160.758 13.5833C160.518 12.8124 160.133 12.2343 159.602 11.8489C159.07 11.4635 158.378 11.2708 157.523 11.2708C156.263 11.2708 155.346 11.7031 154.773 12.5676C154.211 13.4322 153.93 14.7291 153.93 16.4583Z" fill="white"/>
<path d="M137.148 32.9114C134.711 32.9114 132.846 32.4843 131.555 31.6301C130.273 30.7864 129.633 29.5989 129.633 28.0676C129.633 27.0156 129.961 26.1353 130.617 25.427C131.273 24.7187 132.237 24.2135 133.508 23.9114C133.018 23.7031 132.591 23.3645 132.227 22.8958C131.862 22.4166 131.68 21.9114 131.68 21.3801C131.68 20.7135 131.872 20.1614 132.258 19.7239C132.643 19.276 133.201 18.8385 133.93 18.4114C133.013 18.0156 132.284 17.3801 131.742 16.5051C131.211 15.6301 130.945 14.5989 130.945 13.4114C130.945 12.1406 131.221 11.0624 131.773 10.177C132.336 9.28118 133.148 8.59888 134.211 8.13013C135.284 7.66138 136.586 7.42701 138.117 7.42701C138.44 7.42701 138.815 7.44784 139.242 7.48951C139.669 7.53118 140.06 7.57805 140.414 7.63013C140.779 7.68222 141.023 7.72388 141.148 7.75513H147.242V10.177L144.508 10.8801C144.758 11.2656 144.945 11.677 145.07 12.1145C145.195 12.552 145.258 13.0156 145.258 13.5051C145.258 15.3801 144.602 16.8437 143.289 17.8958C141.987 18.9374 140.174 19.4583 137.852 19.4583C137.299 19.427 136.779 19.3853 136.289 19.3333C136.049 19.5208 135.867 19.7187 135.742 19.927C135.617 20.1353 135.555 20.3541 135.555 20.5833C135.555 20.8124 135.648 21.0051 135.836 21.1614C136.034 21.3072 136.326 21.4218 136.711 21.5051C137.107 21.5781 137.596 21.6145 138.18 21.6145H141.148C143.065 21.6145 144.523 22.026 145.523 22.8489C146.534 23.6718 147.039 24.8801 147.039 26.4739C147.039 28.5156 146.185 30.0989 144.477 31.2239C142.779 32.3489 140.336 32.9114 137.148 32.9114ZM137.352 29.802C138.487 29.802 139.461 29.6926 140.273 29.4739C141.096 29.2656 141.727 28.9635 142.164 28.5676C142.602 28.1822 142.82 27.7187 142.82 27.177C142.82 26.7395 142.69 26.3906 142.43 26.1301C142.18 25.8801 141.794 25.7031 141.273 25.5989C140.763 25.4947 140.107 25.4426 139.305 25.4426H136.836C136.253 25.4426 135.727 25.5364 135.258 25.7239C134.799 25.9114 134.435 26.1718 134.164 26.5051C133.893 26.8489 133.758 27.2447 133.758 27.6926C133.758 28.3489 134.07 28.8645 134.695 29.2395C135.331 29.6145 136.216 29.802 137.352 29.802ZM138.117 16.552C139.013 16.552 139.669 16.276 140.086 15.7239C140.503 15.1718 140.711 14.4218 140.711 13.4739C140.711 12.4218 140.492 11.6353 140.055 11.1145C139.628 10.5833 138.982 10.3176 138.117 10.3176C137.242 10.3176 136.586 10.5833 136.148 11.1145C135.711 11.6353 135.492 12.4218 135.492 13.4739C135.492 14.4218 135.706 15.1718 136.133 15.7239C136.57 16.276 137.232 16.552 138.117 16.552Z" fill="white"/>
<path d="M127.023 7.75513V25.2239H122.258V7.75513H127.023ZM124.648 0.911385C125.357 0.911385 125.966 1.07805 126.477 1.41138C126.987 1.7343 127.242 2.34368 127.242 3.23951C127.242 4.12493 126.987 4.73951 126.477 5.08326C125.966 5.41659 125.357 5.58326 124.648 5.58326C123.93 5.58326 123.315 5.41659 122.805 5.08326C122.305 4.73951 122.055 4.12493 122.055 3.23951C122.055 2.34368 122.305 1.7343 122.805 1.41138C123.315 1.07805 123.93 0.911385 124.648 0.911385Z" fill="white"/>
<path d="M117.477 7.42701C117.716 7.42701 117.992 7.44263 118.305 7.47388C118.628 7.49472 118.888 7.52597 119.086 7.56763L118.727 12.0364C118.57 11.9843 118.346 11.9478 118.055 11.927C117.773 11.8958 117.529 11.8801 117.32 11.8801C116.706 11.8801 116.107 11.9583 115.523 12.1145C114.951 12.2708 114.435 12.526 113.977 12.8801C113.518 13.2239 113.154 13.6822 112.883 14.2551C112.622 14.8176 112.492 15.5103 112.492 16.3333V25.2239H107.727V7.75513H111.336L112.039 10.6926H112.273C112.617 10.0989 113.044 9.55722 113.555 9.06763C114.076 8.56763 114.664 8.1718 115.32 7.88013C115.987 7.57805 116.706 7.42701 117.477 7.42701Z" fill="white"/>
<path d="M102.711 7.75513V25.2239H97.9453V7.75513H102.711ZM100.336 0.911385C101.044 0.911385 101.654 1.07805 102.164 1.41138C102.674 1.7343 102.93 2.34368 102.93 3.23951C102.93 4.12493 102.674 4.73951 102.164 5.08326C101.654 5.41659 101.044 5.58326 100.336 5.58326C99.6172 5.58326 99.0026 5.41659 98.4922 5.08326C97.9922 4.73951 97.7422 4.12493 97.7422 3.23951C97.7422 2.34368 97.9922 1.7343 98.4922 1.41138C99.0026 1.07805 99.6172 0.911385 100.336 0.911385Z" fill="white"/>
<path d="M94.1016 20.2864C94.1016 21.4218 93.8255 22.3801 93.2734 23.1614C92.7214 23.9426 91.9141 24.5364 90.8516 24.9426C89.7995 25.3385 88.5078 25.5364 86.9766 25.5364C85.7682 25.5364 84.7266 25.4478 83.8516 25.2708C82.987 25.1041 82.1693 24.8437 81.3984 24.4895V21.3176C82.2214 21.7031 83.1432 22.0364 84.1641 22.3176C85.1953 22.5989 86.1693 22.7395 87.0859 22.7395C88.2943 22.7395 89.1641 22.552 89.6953 22.177C90.2266 21.7916 90.4922 21.2812 90.4922 20.6458C90.4922 20.2708 90.3828 19.9374 90.1641 19.6458C89.9557 19.3437 89.5599 19.0364 88.9766 18.7239C88.4036 18.401 87.5599 18.0156 86.4453 17.5676C85.3516 17.1301 84.4297 16.6926 83.6797 16.2551C82.9297 15.8176 82.362 15.2916 81.9766 14.677C81.5911 14.052 81.3984 13.2551 81.3984 12.2864C81.3984 10.7551 82.0026 9.59368 83.2109 8.80201C84.4297 7.99993 86.0391 7.59888 88.0391 7.59888C89.1016 7.59888 90.1016 7.70826 91.0391 7.92701C91.987 8.13534 92.9141 8.44263 93.8203 8.84888L92.6641 11.6145C91.8828 11.2708 91.0964 10.9895 90.3047 10.7708C89.5234 10.5416 88.7266 10.427 87.9141 10.427C86.9661 10.427 86.2422 10.5728 85.7422 10.8645C85.2526 11.1562 85.0078 11.5728 85.0078 12.1145C85.0078 12.5208 85.1276 12.8645 85.3672 13.1458C85.6068 13.427 86.0182 13.7083 86.6016 13.9895C87.1953 14.2708 88.0182 14.6197 89.0703 15.0364C90.1016 15.4322 90.9922 15.8489 91.7422 16.2864C92.5026 16.7135 93.0859 17.2395 93.4922 17.8645C93.8984 18.4895 94.1016 19.2968 94.1016 20.2864Z" fill="white"/>
<path d="M70.6953 7.59888C72.8828 7.59888 74.5339 8.08326 75.6484 9.05201C76.7734 10.0208 77.3359 11.5312 77.3359 13.5833V25.2239H74.7266L74.0234 22.7708H73.8984C73.4089 23.3958 72.9036 23.9114 72.3828 24.3176C71.862 24.7239 71.2578 25.026 70.5703 25.2239C69.8932 25.4322 69.0651 25.5364 68.0859 25.5364C67.0547 25.5364 66.1328 25.3489 65.3203 24.9739C64.5078 24.5885 63.8672 24.0051 63.3984 23.2239C62.9297 22.4426 62.6953 21.4531 62.6953 20.2551C62.6953 18.4739 63.3568 17.1353 64.6797 16.2395C66.013 15.3437 68.0234 14.8489 70.7109 14.7551L73.7109 14.6458V13.7395C73.7109 12.5416 73.4297 11.6874 72.8672 11.177C72.3151 10.6666 71.5339 10.4114 70.5234 10.4114C69.6589 10.4114 68.8203 10.5364 68.0078 10.7864C67.1953 11.0364 66.4036 11.3437 65.6328 11.7083L64.4453 9.11451C65.2891 8.66659 66.2474 8.30201 67.3203 8.02076C68.4036 7.73951 69.5286 7.59888 70.6953 7.59888ZM73.6953 16.9583L71.4609 17.0364C69.6276 17.0989 68.3411 17.4114 67.6016 17.9739C66.862 18.5364 66.4922 19.3072 66.4922 20.2864C66.4922 21.1406 66.7474 21.7656 67.2578 22.1614C67.7682 22.5468 68.4401 22.7395 69.2734 22.7395C70.5443 22.7395 71.5964 22.3801 72.4297 21.6614C73.2734 20.9322 73.6953 19.8645 73.6953 18.4583V16.9583Z" fill="white"/>
<path d="M58.6484 7.92701V25.2239H54.9766V7.92701H58.6484ZM56.8359 1.30201C57.3984 1.30201 57.8828 1.45305 58.2891 1.75513C58.7057 2.05722 58.9141 2.57805 58.9141 3.31763C58.9141 4.0468 58.7057 4.56763 58.2891 4.88013C57.8828 5.18222 57.3984 5.33326 56.8359 5.33326C56.2526 5.33326 55.7578 5.18222 55.3516 4.88013C54.9557 4.56763 54.7578 4.0468 54.7578 3.31763C54.7578 2.57805 54.9557 2.05722 55.3516 1.75513C55.7578 1.45305 56.2526 1.30201 56.8359 1.30201Z" fill="white"/>
<path d="M38.7109 0.911385V6.77076C38.7109 7.44784 38.6901 8.11451 38.6484 8.77076C38.6172 9.41659 38.5859 9.9218 38.5547 10.2864H38.7109C39.1797 9.53638 39.8307 8.90618 40.6641 8.39576C41.5078 7.87493 42.5859 7.61451 43.8984 7.61451C45.9505 7.61451 47.6016 8.36972 48.8516 9.88013C50.1016 11.3801 50.7266 13.6041 50.7266 16.552C50.7266 18.5103 50.4401 20.1562 49.8672 21.4895C49.2943 22.8228 48.487 23.8333 47.4453 24.5208C46.4141 25.1978 45.2005 25.5364 43.8047 25.5364C42.4922 25.5364 41.4297 25.2968 40.6172 24.8176C39.8151 24.3281 39.1849 23.7603 38.7266 23.1145H38.4609L37.7891 25.2239H35.0391V0.911385H38.7109ZM42.9297 10.5989C41.888 10.5989 41.0599 10.8072 40.4453 11.2239C39.8411 11.6406 39.4036 12.2656 39.1328 13.0989C38.862 13.9218 38.7214 14.9687 38.7109 16.2395V16.5676C38.7109 18.4947 39.013 19.9687 39.6172 20.9895C40.2318 22.0103 41.3464 22.5208 42.9609 22.5208C44.2422 22.5208 45.2266 22.0051 45.9141 20.9739C46.6016 19.9322 46.9453 18.4426 46.9453 16.5051C46.9453 14.5468 46.6016 13.0728 45.9141 12.0833C45.237 11.0937 44.2422 10.5989 42.9297 10.5989Z" fill="white"/>
<path d="M30.8203 16.5364C30.8203 17.9739 30.6328 19.2499 30.2578 20.3645C29.8828 21.4791 29.3359 22.4218 28.6172 23.1926C27.8984 23.9531 27.0339 24.5364 26.0234 24.9426C25.013 25.3385 23.8724 25.5364 22.6016 25.5364C21.4141 25.5364 20.3255 25.3385 19.3359 24.9426C18.3464 24.5364 17.487 23.9531 16.7578 23.1926C16.0391 22.4218 15.4818 21.4791 15.0859 20.3645C14.6901 19.2499 14.4922 17.9739 14.4922 16.5364C14.4922 14.6301 14.8203 13.0156 15.4766 11.6926C16.1432 10.3593 17.0911 9.34368 18.3203 8.64576C19.5495 7.94784 21.013 7.59888 22.7109 7.59888C24.3047 7.59888 25.7109 7.94784 26.9297 8.64576C28.1484 9.34368 29.1016 10.3593 29.7891 11.6926C30.4766 13.026 30.8203 14.6406 30.8203 16.5364ZM18.2734 16.5364C18.2734 17.7968 18.4245 18.8749 18.7266 19.7708C19.0391 20.6666 19.5182 21.3541 20.1641 21.8333C20.8099 22.302 21.6432 22.5364 22.6641 22.5364C23.6849 22.5364 24.5182 22.302 25.1641 21.8333C25.8099 21.3541 26.2839 20.6666 26.5859 19.7708C26.888 18.8749 27.0391 17.7968 27.0391 16.5364C27.0391 15.276 26.888 14.2083 26.5859 13.3333C26.2839 12.4478 25.8099 11.776 25.1641 11.3176C24.5182 10.8489 23.6797 10.6145 22.6484 10.6145C21.1276 10.6145 20.0182 11.1249 19.3203 12.1458C18.6224 13.1666 18.2734 14.6301 18.2734 16.5364Z" fill="white"/>
<path d="M9.28906 22.5676C9.76823 22.5676 10.2422 22.526 10.7109 22.4426C11.1797 22.3489 11.6068 22.2395 11.9922 22.1145V24.8958C11.5859 25.0728 11.0599 25.2239 10.4141 25.3489C9.76823 25.4739 9.09635 25.5364 8.39844 25.5364C7.41927 25.5364 6.53906 25.3749 5.75781 25.052C4.97656 24.7187 4.35677 24.151 3.89844 23.3489C3.4401 22.5468 3.21094 21.4374 3.21094 20.0208V10.7239H0.851562V9.08326L3.38281 7.78638L4.58594 4.08326H6.89844V7.92701H11.8516V10.7239H6.89844V19.9739C6.89844 20.8489 7.11719 21.4999 7.55469 21.927C7.99219 22.3541 8.57031 22.5676 9.28906 22.5676Z" fill="white"/>
</svg>
