<svg width="596" height="480" viewBox="0 0 596 480" fill="none" xmlns="http://www.w3.org/2000/svg">
<path d="M362.475 14.5313H216.241L217.727 0.953012H363.961L362.475 14.5313Z" fill="#263238"/>
<path d="M362.475 33.5684H216.241L217.727 19.9729H363.961L362.475 33.5684Z" fill="#263238"/>
<path d="M362.475 52.5883H216.241L217.727 38.9928H363.961L362.475 52.5883Z" fill="#263238"/>
<path d="M362.475 71.6082H216.241L217.727 58.03H363.961L362.475 71.6082Z" fill="#263238"/>
<path d="M362.475 90.6454H216.241L217.727 77.0499H363.961L362.475 90.6454Z" fill="#263238"/>
<path d="M362.475 109.665H216.241L217.727 96.0698H363.961L362.475 109.665Z" fill="#263238"/>
<path d="M362.475 128.685H216.241L217.727 115.107H363.961L362.475 128.685Z" fill="#263238"/>
<path d="M362.475 147.722H216.241L217.727 134.127H363.961L362.475 147.722Z" fill="#263238"/>
<path d="M362.475 166.742H216.241L217.727 153.147H363.961L362.475 166.742Z" fill="#263238"/>
<path d="M362.475 185.762H216.241L217.727 172.184H363.961L362.475 185.762Z" fill="#263238"/>
<path d="M362.475 204.799H216.241L217.727 191.204H363.961L362.475 204.799Z" fill="#263238"/>
<path d="M517.104 14.5312H370.871L372.356 0.953003H518.573L517.104 14.5312Z" fill="#263238"/>
<path d="M517.104 33.5684H370.871L372.356 19.9729H518.573L517.104 33.5684Z" fill="#263238"/>
<path d="M517.104 52.5883H370.871L372.356 38.9928H518.573L517.104 52.5883Z" fill="#263238"/>
<path d="M517.104 71.6082H370.871L372.356 58.03H518.573L517.104 71.6082Z" fill="#263238"/>
<path d="M517.104 90.6454H370.871L372.356 77.0499H518.573L517.104 90.6454Z" fill="#263238"/>
<path d="M517.104 109.665H370.871L372.356 96.0698H518.573L517.104 109.665Z" fill="#263238"/>
<path d="M517.104 128.685H370.871L372.356 115.107H518.573L517.104 128.685Z" fill="#263238"/>
<path d="M517.104 147.722H370.871L372.356 134.127H518.573L517.104 147.722Z" fill="#263238"/>
<path d="M517.104 166.742H370.871L372.356 153.147H518.573L517.104 166.742Z" fill="#263238"/>
<path d="M517.104 185.762H370.871L372.356 172.184H518.573L517.104 185.762Z" fill="#263238"/>
<path d="M517.104 204.799H370.871L372.356 191.204H518.573L517.104 204.799Z" fill="#263238"/>
<path d="M46.392 59.8439H104.851V77.5336H46.392C44.0416 77.5336 41.7875 76.5999 40.1256 74.9379C38.4636 73.276 37.5299 71.0218 37.5299 68.6715C37.5299 66.3211 38.4636 64.067 40.1256 62.405C41.7875 60.743 44.0416 59.8093 46.392 59.8093V59.8439Z" fill="white"/>
<path d="M104.92 37.6972H46.392C44.0416 37.6972 41.7875 38.6309 40.1256 40.2928C38.4636 41.9548 37.5299 44.209 37.5299 46.5593C37.5299 48.9097 38.4636 51.1638 40.1256 52.8258C41.7875 54.4878 44.0416 55.4215 46.392 55.4215H104.851L104.92 37.6972Z" fill="white"/>
<path d="M131.489 17.3298H110.224V76.6699H131.489V17.3298Z" fill="white"/>
<path d="M158.058 17.3298H136.793V76.6699H158.058V17.3298Z" fill="white"/>
<path d="M184.645 17.3298H163.379V76.6699H184.645V17.3298Z" fill="white"/>
<path d="M46.392 59.8439H104.851V77.5336H46.392C44.0416 77.5336 41.7875 76.5999 40.1256 74.9379C38.4636 73.276 37.5299 71.0218 37.5299 68.6715C37.5299 66.3211 38.4636 64.067 40.1256 62.405C41.7875 60.743 44.0416 59.8093 46.392 59.8093V59.8439Z" fill="#263238"/>
<path d="M104.92 37.6972H46.392C44.0416 37.6972 41.7875 38.6309 40.1256 40.2928C38.4636 41.9548 37.5299 44.209 37.5299 46.5593C37.5299 48.9097 38.4636 51.1638 40.1256 52.8258C41.7875 54.4878 44.0416 55.4215 46.392 55.4215H104.851L104.92 37.6972Z" fill="#263238"/>
<path d="M131.489 17.3298H110.224V76.6699H131.489V17.3298Z" fill="#263238"/>
<path d="M158.058 17.3298H136.793V76.6699H158.058V17.3298Z" fill="#263238"/>
<path d="M184.645 17.3298H163.379V76.6699H184.645V17.3298Z" fill="#263238"/>
<path d="M197.463 78.2592H30.5507V88.1405H44.0944V112.654H52.1446V88.1405H171.93V112.654H179.981V88.1405H197.463V78.2592Z" fill="#263238"/>
<path d="M532.687 231.887C532.687 231.887 526.64 238.797 523.185 252.617C519.73 266.437 535.278 276.802 530.096 291.486C524.913 306.17 515.412 313.08 518.003 327.764C520.594 342.448 531.823 343.311 523.185 359.723C514.548 376.134 506.774 382.18 509.365 397.728C511.957 413.276 544.779 433.142 544.779 433.142C544.779 433.142 567.237 408.093 568.101 391.682C568.965 375.27 548.234 364.905 551.689 350.221C555.144 335.538 563.782 323.445 562.918 309.625C562.054 295.805 545.643 285.44 545.643 275.075C545.643 264.71 552.553 258.663 552.553 246.571C552.553 234.478 537.006 224.113 537.006 217.203C537.337 211.872 538.503 206.625 540.461 201.655C540.461 201.655 524.049 212.02 532.687 231.887Z" fill="white"/>
<path d="M532.687 231.887C532.687 231.887 526.64 238.797 523.185 252.617C519.73 266.437 535.278 276.802 530.096 291.486C524.913 306.17 515.412 313.08 518.003 327.764C520.594 342.448 531.823 343.311 523.185 359.723C514.548 376.134 506.774 382.18 509.365 397.728C511.957 413.276 544.779 433.142 544.779 433.142C544.779 433.142 567.237 408.093 568.101 391.682C568.965 375.27 548.234 364.905 551.689 350.221C555.144 335.538 563.782 323.445 562.918 309.625C562.054 295.805 545.643 285.44 545.643 275.075C545.643 264.71 552.553 258.663 552.553 246.571C552.553 234.478 537.006 224.113 537.006 217.203C537.337 211.872 538.503 206.625 540.461 201.655C540.461 201.655 524.049 212.02 532.687 231.887Z" fill="white"/>
<path d="M562.918 427.959H519.73V476.33H562.918V427.959Z" fill="#263238"/>
<path d="M352.974 280.361L369.247 473.842C369.289 474.127 369.391 474.401 369.544 474.645C369.698 474.89 369.9 475.099 370.138 475.262C370.377 475.424 370.646 475.535 370.93 475.588C371.214 475.641 371.505 475.635 371.786 475.57C372.273 475.451 372.701 475.16 372.99 474.75C373.279 474.341 373.41 473.84 373.358 473.341L362.285 280.309L352.974 280.361Z" fill="#263238"/>
<path d="M462.204 280.361L478.529 474.499C478.574 474.783 478.677 475.055 478.831 475.298C478.985 475.541 479.187 475.75 479.425 475.911C479.663 476.073 479.932 476.185 480.215 476.239C480.497 476.293 480.788 476.289 481.069 476.226C481.557 476.104 481.985 475.81 482.274 475.397C482.563 474.984 482.693 474.481 482.641 473.98L471.533 280.361H462.204Z" fill="#263238"/>
<path d="M178.443 280.361L169.806 472.115C169.757 472.617 169.891 473.12 170.183 473.533C170.475 473.945 170.905 474.239 171.395 474.36C171.675 474.431 171.967 474.442 172.252 474.391C172.537 474.34 172.807 474.229 173.046 474.066C173.284 473.902 173.485 473.69 173.635 473.443C173.786 473.196 173.882 472.92 173.917 472.633L187.737 280.309L178.443 280.361Z" fill="#263238"/>
<path d="M77.781 280.361L69.1434 471.527C69.0954 472.03 69.2294 472.533 69.5211 472.945C69.8127 473.357 70.2427 473.651 70.7327 473.773C71.013 473.844 71.3052 473.854 71.5899 473.803C71.8745 473.753 72.1451 473.642 72.3836 473.478C72.6221 473.315 72.8232 473.103 72.9734 472.856C73.1236 472.609 73.2196 472.332 73.2549 472.046L86.954 280.292L77.781 280.361Z" fill="#263238"/>
<path d="M483.453 269.633H71.7001V286.252H483.453V269.633Z" fill="white"/>
<path d="M483.453 269.633H71.7001V275.334H483.453V269.633Z" fill="#263238"/>
<path d="M483.453 269.633H338.635V286.252H483.453V269.633Z" fill="#263238"/>
<path d="M488.618 264.105H66.5521V270.445H488.618V264.105Z" fill="white"/>
<path d="M488.618 264.105H344.682V270.445H488.618V264.105Z" fill="#263238"/>
<path d="M301.183 242.027L313.742 263.656H292.096L301.183 242.027Z" fill="#263238"/>
<path d="M168.354 263.535H292.096C292.565 263.532 293.024 263.393 293.416 263.136C293.808 262.878 294.118 262.513 294.307 262.084L328.564 183.983C328.745 183.613 328.827 183.202 328.804 182.791C328.78 182.379 328.651 181.981 328.429 181.634C328.207 181.287 327.899 181.003 327.536 180.809C327.172 180.616 326.765 180.519 326.353 180.528H202.628C202.16 180.523 201.7 180.656 201.307 180.911C200.913 181.166 200.604 181.532 200.417 181.962L166.161 260.08C165.98 260.449 165.898 260.858 165.921 261.267C165.943 261.677 166.071 262.075 166.291 262.421C166.511 262.768 166.816 263.052 167.177 263.247C167.539 263.442 167.944 263.541 168.354 263.535Z" fill="#263238"/>
<path d="M177.268 260.425H284.374C284.809 260.426 285.234 260.301 285.599 260.065C285.964 259.829 286.253 259.492 286.43 259.095L317.801 189.252C317.951 188.91 318.012 188.537 317.981 188.166C317.95 187.794 317.827 187.436 317.623 187.124C317.419 186.813 317.141 186.556 316.813 186.379C316.485 186.201 316.118 186.108 315.746 186.108H208.64C208.203 186.106 207.775 186.233 207.41 186.472C207.044 186.712 206.757 187.054 206.584 187.455L175.23 257.281C175.077 257.621 175.011 257.994 175.04 258.366C175.068 258.738 175.189 259.096 175.392 259.409C175.595 259.722 175.873 259.979 176.201 260.156C176.528 260.334 176.896 260.426 177.268 260.425Z" fill="white"/>
<path d="M263.627 220.917C275.172 225.498 285.647 232.414 294.394 241.233L297.089 235.255L298.816 231.559C282.491 228.743 276.825 213.921 261.329 193.26C259.212 190.455 256.65 188.016 253.745 186.039H208.64C208.205 186.042 207.78 186.168 207.414 186.401C207.045 186.639 206.756 186.982 206.584 187.386L194.924 213.299C227.349 226.963 232.29 208.444 263.627 220.917Z" fill="white"/>
<path d="M260.465 234.426C235.174 232.06 185.388 251.805 185.388 251.805L180.775 260.443H204.425C222.253 253.533 243.57 246.622 256.527 247.089C270.139 247.521 273.007 254.552 273.422 260.443H277.257C279.192 250.889 277.879 236.067 260.465 234.426Z" fill="white"/>
<path d="M311.461 203.331L314.917 195.644C313.085 192.396 310.978 189.045 309.06 186.108H294.756C298.851 190.651 305.899 198.252 311.461 203.331Z" fill="white"/>
<path d="M439.816 264.606H474.297V255.761H439.816V264.606Z" fill="#263238"/>
<path d="M457.937 258.784C458.816 258.786 459.662 258.453 460.304 257.853C460.946 257.253 461.335 256.431 461.392 255.554L467.145 171.562C467.176 171.108 467.116 170.653 466.971 170.222C466.826 169.791 466.597 169.393 466.298 169.051C465.999 168.708 465.635 168.428 465.228 168.226C464.82 168.024 464.377 167.904 463.923 167.874C463.469 167.843 463.014 167.902 462.583 168.048C462.152 168.193 461.754 168.422 461.412 168.721C461.069 169.02 460.789 169.384 460.587 169.791C460.385 170.199 460.265 170.642 460.235 171.096L454.482 255.087C454.421 256.001 454.724 256.902 455.327 257.592C455.93 258.282 456.781 258.705 457.695 258.767L457.937 258.784Z" fill="#263238"/>
<path d="M464.122 175.674C464.85 175.675 465.56 175.446 466.15 175.02C466.74 174.594 467.181 173.992 467.409 173.3C467.637 172.609 467.641 171.863 467.419 171.169C467.198 170.475 466.764 169.869 466.177 169.437L409.515 129.566C409.345 129.374 409.134 129.222 408.898 129.122C408.661 129.022 408.406 128.975 408.149 128.986C407.893 128.997 407.642 129.065 407.415 129.185C407.188 129.305 406.99 129.474 406.837 129.68C406.684 129.886 406.578 130.123 406.528 130.375C406.478 130.627 406.484 130.886 406.547 131.135C406.61 131.384 406.728 131.616 406.892 131.814C407.055 132.011 407.261 132.17 407.494 132.278L462.049 174.983C462.647 175.431 463.374 175.674 464.122 175.674Z" fill="#263238"/>
<path d="M464.122 177.073C467.051 177.073 469.425 174.698 469.425 171.769C469.425 168.84 467.051 166.466 464.122 166.466C461.193 166.466 458.818 168.84 458.818 171.769C458.818 174.698 461.193 177.073 464.122 177.073Z" fill="#263238"/>
<path d="M407.528 138.169C410.457 138.169 412.832 135.795 412.832 132.866C412.832 129.937 410.457 127.562 407.528 127.562C404.599 127.562 402.225 129.937 402.225 132.866C402.225 135.795 404.599 138.169 407.528 138.169Z" fill="#263238"/>
<path d="M384.984 140.139L404.989 156.187L411.692 138.912C412.275 137.412 412.363 135.765 411.943 134.211C411.524 132.657 410.618 131.278 409.36 130.275C408.11 129.267 406.571 128.685 404.968 128.614C403.364 128.542 401.78 128.985 400.446 129.877L384.984 140.139Z" fill="#263238"/>
<path d="M370.041 263.535H449.092C449.392 263.535 449.684 263.448 449.936 263.286C450.187 263.123 450.386 262.892 450.509 262.619L472.397 212.711C472.496 212.476 472.536 212.22 472.513 211.966C472.489 211.712 472.404 211.467 472.264 211.254C472.124 211.041 471.934 210.865 471.71 210.742C471.486 210.62 471.235 210.555 470.98 210.552H391.894C391.598 210.553 391.308 210.641 391.059 210.803C390.811 210.965 390.615 211.196 390.495 211.468L368.608 261.375C368.503 261.612 368.46 261.87 368.482 262.128C368.504 262.385 368.59 262.633 368.733 262.848C368.876 263.063 369.07 263.239 369.299 263.359C369.528 263.479 369.783 263.54 370.041 263.535Z" fill="white"/>
<path d="M377.453 259.648H444.826C445.083 259.651 445.336 259.577 445.551 259.435C445.767 259.294 445.935 259.091 446.035 258.853L464.709 216.27C464.794 216.072 464.829 215.855 464.811 215.64C464.792 215.424 464.721 215.217 464.603 215.036C464.485 214.854 464.324 214.705 464.135 214.601C463.946 214.497 463.733 214.441 463.517 214.439H396.127C395.873 214.441 395.624 214.515 395.41 214.653C395.196 214.79 395.025 214.986 394.918 215.216L376.243 257.8C376.158 258.001 376.124 258.219 376.143 258.437C376.163 258.654 376.236 258.863 376.355 259.046C376.475 259.229 376.637 259.379 376.829 259.484C377.02 259.589 377.234 259.645 377.453 259.648Z" fill="white"/>
<path d="M430.021 235.307C437.659 238.181 444.631 242.584 450.509 248.246L453.394 242.079C442.528 240.352 438.762 230.85 428.431 217.687C427.485 216.487 426.407 215.398 425.218 214.439H396.127C395.873 214.441 395.624 214.515 395.41 214.653C395.196 214.79 395.025 214.986 394.918 215.216L387.679 231.731C406.267 237.847 410.31 227.827 430.021 235.307Z" fill="white"/>
<path d="M427.913 243.858C411.07 242.356 377.815 254.932 377.815 254.932L376.088 257.938C376.019 258.133 375.997 258.343 376.026 258.549C376.055 258.755 376.133 258.95 376.253 259.12C376.373 259.289 376.532 259.427 376.717 259.522C376.902 259.617 377.107 259.666 377.314 259.665H392.603C404.004 255.536 417.03 251.684 425.132 251.943C433.579 252.202 435.825 256.089 436.309 259.665H439.09C440.265 253.567 439.056 244.86 427.913 243.858Z" fill="white"/>
<path d="M461.513 223.733L463.793 218.55C462.947 217.168 462.066 215.769 461.168 214.456H452.012C454.689 217.238 458.404 220.917 461.513 223.733Z" fill="white"/>
<path d="M450.198 260.218H331.432V264.105H450.198V260.218Z" fill="white"/>
<path d="M450.198 260.218H392.62V264.105H450.198V260.218Z" fill="white"/>
<path d="M342.505 233.234H321.55V264.191H342.505V233.234Z" fill="white"/>
<path d="M341.555 259.976H339.378C338.92 259.976 338.48 259.794 338.156 259.47C337.833 259.146 337.651 258.707 337.651 258.249C337.651 257.79 337.833 257.351 338.156 257.027C338.48 256.703 338.92 256.521 339.378 256.521H341.555C342.424 256.517 343.256 256.169 343.871 255.555C344.485 254.94 344.832 254.108 344.837 253.239V245.741C344.837 244.871 344.491 244.036 343.876 243.421C343.26 242.805 342.425 242.459 341.555 242.459H338.756C338.298 242.459 337.859 242.277 337.535 241.953C337.211 241.629 337.029 241.19 337.029 240.732C337.029 240.274 337.211 239.834 337.535 239.51C337.859 239.186 338.298 239.004 338.756 239.004H341.555C343.34 239.009 345.051 239.72 346.314 240.983C347.576 242.245 348.287 243.956 348.292 245.741V253.239C348.287 255.024 347.576 256.735 346.314 257.998C345.051 259.26 343.34 259.972 341.555 259.976Z" fill="white"/>
<path d="M199.674 102.22C199.674 102.22 204.408 116.921 204.408 119.771C204.374 121.834 204.218 123.894 203.941 125.938L208.139 132.434C208.271 132.639 208.359 132.869 208.4 133.109C208.441 133.349 208.433 133.595 208.376 133.832C208.32 134.069 208.216 134.292 208.071 134.488C207.927 134.684 207.744 134.849 207.535 134.973L201.091 138.757C201.091 138.757 200.141 153.941 199.191 155.842C198.241 157.742 182.106 157.276 182.106 157.276L176.923 167.243L149.87 156.792L156.953 137.34L155.519 107.972C155.519 107.972 172.138 93.2021 199.674 102.22Z" fill="white"/>
<path d="M180.689 138.757L184.472 139.707C184.241 141.475 184.374 143.272 184.865 144.986C185.355 146.7 186.191 148.296 187.323 149.674" fill="white"/>
<path d="M168.337 91.3537C168.337 91.3537 157.972 88.0196 152.669 102.272C147.365 116.524 156.953 135.094 156.953 137.392C156.953 139.689 165.02 141.659 171.188 141.659C174.583 141.79 177.926 140.787 180.689 138.808C180.689 138.808 178.305 129.324 180.205 127.424C182.106 125.524 186.856 129.791 186.856 129.791C188.346 129.555 189.788 129.076 191.123 128.374C192.54 127.424 199.674 123.624 197.29 119.357C194.906 115.09 190.173 111.289 193.974 108.439C197.774 105.588 207.794 105.105 208.208 96.0871C208.623 87.0695 203.026 85.1865 197.29 86.1193C191.555 87.0522 193.49 78.0519 182.572 79.4857C171.654 80.9195 166.437 87.0177 168.337 91.3537Z" fill="#263238"/>
<path d="M279.606 189.355C284.75 197.4 290.872 204.775 297.832 211.312C297.832 211.312 291.215 196.576 281.403 187.87C280.522 187.11 278.984 188.371 279.606 189.355Z" fill="#263238"/>
<path d="M241.463 246.398L276.445 220.053C276.445 220.053 276.445 207.961 278.173 205.37C279.9 202.778 294.152 198.459 294.152 198.459C294.152 198.459 298.039 193.709 300.198 198.459C300.816 199.851 301.061 201.378 300.909 202.893C300.758 204.407 300.215 205.856 299.335 207.097C299.558 210.548 299.558 214.011 299.335 217.462C298.903 220.053 283.787 226.532 283.787 226.532C283.787 226.532 263.057 257.195 252.692 265.832C242.327 274.47 240.167 276.198 235.849 277.925C231.53 279.653 223.756 267.128 223.756 267.128L241.463 246.398Z" fill="white"/>
<path d="M177.977 448.551C177.977 448.551 202.594 464.099 206.913 464.099C211.231 464.099 213.391 467.986 211.231 468.418C209.072 468.85 195.684 469.282 186.614 469.713C177.545 470.145 171.499 469.281 166.316 469.281C161.134 469.281 155.087 469.713 152.496 468.418C149.905 467.122 154.223 452.438 154.223 449.847C154.223 447.256 174.954 446.824 177.977 448.551Z" fill="#263238"/>
<path d="M209.729 464.721C200.175 467.882 184.68 465.809 175.386 464.963C168.026 464.289 156.556 464.133 151.736 464.099C151.546 466.327 151.736 468.003 152.496 468.418C155.087 469.713 161.134 469.281 166.316 469.281C171.499 469.281 177.545 470.145 186.614 469.713C195.684 469.282 209.072 468.85 211.231 468.418C212.838 468.09 212.043 465.844 209.729 464.721Z" fill="white"/>
<path d="M197.411 341.843L177.994 439.188L182.037 449.294C179.137 453.503 174.757 456.463 169.771 457.586C164.22 458.668 158.583 459.247 152.928 459.314C152.928 459.314 150.769 448.517 152.064 447.221C153.36 445.926 153.792 440.743 153.792 440.743L165.021 342.707L197.411 341.843Z" fill="white"/>
<path d="M256.579 445.252C256.579 445.252 271.694 457.776 278.604 459.936C285.514 462.095 292.856 464.254 292.856 466.414C292.856 468.573 276.445 470.733 263.921 469.437C251.396 468.141 232.393 462.527 228.075 462.527C223.756 462.527 224.62 451.298 224.62 449.571C224.62 447.843 245.782 434.023 256.579 445.252Z" fill="#263238"/>
<path d="M292.856 466.414C292.856 465.636 291.889 464.859 290.351 464.082C277.992 465.751 265.459 465.664 253.124 463.823C243.651 462.473 234.253 460.646 224.965 458.346C225.414 460.661 226.313 462.527 228.075 462.527C232.393 462.527 251.396 468.141 263.921 469.437C276.445 470.733 292.856 468.573 292.856 466.414Z" fill="white"/>
<path d="M181.432 298.223C194.385 297.228 207.405 297.518 220.301 299.087C242.327 301.678 274.717 304.701 275.581 310.316C276.445 315.93 254.195 432.796 254.195 435.82C254.195 438.843 257.65 441.866 258.513 443.593C259.059 444.818 259.353 446.14 259.377 447.48C259.377 447.48 248.805 458.882 240.599 461.905C232.393 464.928 225.501 462.112 223.773 462.112C222.046 462.112 222.046 450.452 223.341 444.837C224.637 439.223 226.796 424.971 227.228 423.675C227.66 422.38 234.553 339.252 234.553 339.252C234.553 339.252 187.046 349.617 148.609 345.298C110.172 340.979 106.285 334.933 104.126 325.863C101.966 316.794 106.285 298.655 106.285 298.655L181.432 298.223Z" fill="white"/>
<path d="M264.439 331.081C265.89 330.51 267.324 329.923 268.671 329.353L264.439 331.081Z" fill="white"/>
<path d="M234.553 339.252C242.825 337.628 250.998 335.535 259.032 332.981L234.553 339.252Z" fill="white"/>
<path d="M145.154 154.408C145.154 154.408 111.468 170.387 106.717 173.411C101.966 176.434 98.9432 214.007 98.9432 220.485C98.9432 226.963 103.694 290.449 104.989 301.246C106.285 312.043 147.745 319.385 161.565 315.498C175.386 311.611 188.774 301.678 188.774 298.223C188.774 294.768 187.478 265.401 188.342 259.786C189.206 254.172 196.979 230.418 196.979 230.418L211.663 272.311C217.827 270.667 223.885 268.647 229.802 266.264C242.327 261.082 245.35 243.807 245.35 243.807C245.35 243.807 231.53 219.621 227.643 207.529C223.756 195.436 222.028 186.367 220.301 184.207C218.573 182.048 179.704 163.909 172.794 159.159C168.897 156.225 164.356 154.264 159.549 153.438C154.742 152.612 149.807 152.944 145.154 154.408Z" fill="#263238"/>
<path d="M136.551 351.897L153.826 474.55C153.864 474.836 153.962 475.111 154.113 475.356C154.264 475.602 154.464 475.813 154.702 475.976C154.94 476.139 155.21 476.25 155.493 476.302C155.777 476.354 156.068 476.346 156.348 476.278C156.832 476.16 157.258 475.871 157.546 475.465C157.835 475.059 157.968 474.563 157.92 474.067L145.828 349.893L136.551 351.897Z" fill="#263238"/>
<path d="M86.9886 352.899L58.1564 473.358C58.0885 473.639 58.0803 473.93 58.1323 474.213C58.1843 474.497 58.2954 474.766 58.4583 475.004C58.6212 475.242 58.8323 475.443 59.0779 475.594C59.3235 475.745 59.5981 475.843 59.8839 475.881C60.3793 475.95 60.883 475.837 61.302 475.564C61.7211 475.291 62.0273 474.876 62.1642 474.395L95.6434 357.511L86.9886 352.899Z" fill="#263238"/>
<path d="M139.35 351.413L121.003 473.894C120.96 474.178 120.976 474.469 121.05 474.747C121.125 475.025 121.257 475.284 121.437 475.508C121.617 475.733 121.842 475.917 122.098 476.049C122.353 476.182 122.634 476.26 122.921 476.278C123.428 476.306 123.928 476.144 124.324 475.825C124.719 475.506 124.983 475.052 125.063 474.55L148.315 355.266L139.35 351.413Z" fill="#263238"/>
<path d="M188.946 351.897L206.221 474.55C206.262 474.835 206.361 475.108 206.513 475.352C206.664 475.597 206.865 475.807 207.102 475.969C207.34 476.132 207.608 476.243 207.891 476.296C208.173 476.349 208.464 476.343 208.744 476.278C209.229 476.16 209.656 475.872 209.948 475.467C210.239 475.061 210.376 474.564 210.333 474.067L198.24 349.893L188.946 351.897Z" fill="#263238"/>
<path d="M59.9185 265.953C59.9185 265.953 54.736 244.066 55.3233 231.973C55.9107 219.881 66.8286 204.333 97.3537 206.06C127.879 207.788 143.997 237.156 141.699 260.771C139.401 284.386 141.699 330.441 157.817 340.236C173.934 350.031 210.212 343.121 210.212 343.121C210.212 343.121 215.395 344.261 211.369 348.304C207.344 352.346 173.934 358.081 157.247 360.396C144.497 362.124 112.331 361.226 97.7856 360.69C90.2311 360.501 83.0557 357.342 77.8156 351.897C75.7047 349.634 73.9565 347.059 72.633 344.261C64.1337 326.503 59.9185 265.953 59.9185 265.953Z" fill="white"/>
<path d="M59.9185 265.953C59.9185 265.953 54.736 244.066 55.3233 231.973C55.9107 219.881 66.8286 204.333 97.3537 206.06C127.879 207.788 143.997 237.156 141.699 260.771C139.401 284.386 141.699 330.441 157.817 340.236C173.934 350.031 210.212 343.121 210.212 343.121C210.212 343.121 215.395 344.261 211.369 348.304C207.344 352.346 173.934 358.081 157.247 360.396C144.497 362.124 112.331 361.226 97.7856 360.69C90.2311 360.501 83.0557 357.342 77.8156 351.897C75.7047 349.634 73.9565 347.059 72.633 344.261C64.1337 326.503 59.9185 265.953 59.9185 265.953Z" fill="black"/>
<path d="M157.247 360.396C161.323 359.826 166.42 359.049 171.844 358.151C165.316 357.814 158.91 356.249 152.962 353.538C134.944 344.106 132.37 299.726 134.944 276.975C137.518 254.224 119.483 225.944 85.3475 224.268C72.6503 223.647 62.8899 225.34 55.8071 228.311C55.5391 229.515 55.3772 230.741 55.3233 231.973C54.736 244.066 59.9185 265.953 59.9185 265.953C59.9185 265.953 64.1337 326.503 72.5985 344.261C73.9219 347.059 75.6701 349.634 77.781 351.897C83.0211 357.342 90.1966 360.501 97.751 360.69C112.331 361.226 144.497 362.141 157.247 360.396Z" fill="white"/>
<path d="M157.247 360.396C161.323 359.826 166.42 359.049 171.844 358.151C165.316 357.814 158.91 356.249 152.962 353.538C134.944 344.106 132.37 299.726 134.944 276.975C137.518 254.224 119.483 225.944 85.3475 224.268C72.6503 223.647 62.8899 225.34 55.8071 228.311C55.5391 229.515 55.3772 230.741 55.3233 231.973C54.736 244.066 59.9185 265.953 59.9185 265.953C59.9185 265.953 64.1337 326.503 72.5985 344.261C73.9219 347.059 75.6701 349.634 77.781 351.897C83.0211 357.342 90.1966 360.501 97.751 360.69C112.331 361.226 144.497 362.141 157.247 360.396Z" fill="white"/>
<path d="M596 470.353H0.751221V479.785H596V470.353Z" fill="#263238"/>
</svg>
