<?xml version="1.0" encoding="UTF-8"?>
<svg id="Layer_1" xmlns="http://www.w3.org/2000/svg" version="1.1" viewBox="0 0 53 53.5">
  <!-- Generator: Adobe Illustrator 29.0.0, SVG Export Plug-In . SVG Version: 2.1.0 Build 186)  -->
  <defs>
    <style>
      .st0 {
        fill: #fff;
      }
    </style>
  </defs>
  <path class="st0" d="M49.5,3.8c-4.7-4.7-12.3-4.7-17,0l-9.2,9.2c-.4.4-.4,1,0,1.4s1,.4,1.4,0l9.2-9.2c1.9-1.9,4.4-2.9,7.1-2.9s5.2,1,7.1,2.9,2.9,4.4,2.9,7.1-1,5.2-2.9,7.1l-12,12c-3.9,3.9-10.2,3.9-14.1,0-.4-.4-1-.4-1.4,0s-.4,1,0,1.4c2.3,2.3,5.4,3.5,8.5,3.5s6.1-1.2,8.5-3.5l12-12c2.3-2.3,3.5-5.3,3.5-8.5,0-3.2-1.3-6.2-3.5-8.5Z"/>
  <path class="st0" d="M26.8,40.5l-7.8,7.8c-1.9,1.9-4.4,2.9-7.1,2.9s-5.2-1-7.1-2.9c-3.9-3.9-3.9-10.2,0-14.1l11.3-11.3c3.9-3.9,10.2-3.9,14.1,0s1,.4,1.4,0,.4-1,0-1.4c-4.7-4.7-12.3-4.7-17,0l-11.3,11.3c-2.3,2.3-3.5,5.3-3.5,8.5s1.2,6.2,3.5,8.5c2.3,2.2,5.3,3.5,8.5,3.5s6.2-1.2,8.5-3.5l7.8-7.8c.4-.4.4-1,0-1.4s-1-.4-1.4,0Z"/>
  <path class="st0" d="M34,44.3c-.5,0-1,.5-1,1v6c0,.5.5,1,1,1s1-.5,1-1v-6c0-.5-.4-1-1-1Z"/>
  <path class="st0" d="M38.4,42.5c-.4-.4-1-.4-1.4,0s-.4,1,0,1.4l4.2,4.2c.2.2.5.3.7.3s.5,0,.7-.3c.4-.4.4-1,0-1.4l-4.2-4.2Z"/>
  <path class="st0" d="M45,38.3h-6c-.5,0-1,.5-1,1s.5,1,1,1h6c.5,0,1-.5,1-1s-.4-1-1-1Z"/>
  <path class="st0" d="M16,11.3c.6,0,1-.4,1-1v-6c0-.5-.5-1-1-1s-1,.5-1,1v6c0,.6.5,1,1,1Z"/>
  <path class="st0" d="M11.5,13c.2.2.4.3.7.3s.5-.1.7-.3c.4-.4.4-1,0-1.4l-4.2-4.3c-.4-.4-1-.4-1.4,0s-.4,1,0,1.4l4.2,4.2Z"/>
  <path class="st0" d="M5,17.3h6c.6,0,1-.5,1-1s-.4-1-1-1h-6c-.6,0-1,.4-1,1s.4,1,1,1Z"/>
</svg>