<?xml version="1.0" encoding="UTF-8"?>
<svg id="Layer_1" xmlns="http://www.w3.org/2000/svg" version="1.1" xmlns:xlink="http://www.w3.org/1999/xlink" viewBox="0 0 621 483.1">
  <!-- Generator: Adobe Illustrator 29.0.0, SVG Export Plug-In . SVG Version: 2.1.0 Build 186)  -->
  <defs>
    <style>
      .st0, .st1 {
        opacity: .8;
      }

      .st2, .st3, .st4 {
        fill: #fff;
      }

      .st2, .st5, .st6, .st7, .st8 {
        stroke-linecap: round;
        stroke-linejoin: round;
      }

      .st2, .st6, .st8 {
        stroke: #263238;
      }

      .st9, .st1, .st8 {
        fill: #263238;
      }

      .st1, .st4 {
        isolation: isolate;
      }

      .st10 {
        mask: url(#mask);
      }

      .st11 {
        opacity: .4;
      }

      .st5 {
        stroke-width: .5px;
      }

      .st5, .st6, .st7 {
        fill: none;
      }

      .st5, .st7 {
        stroke: #fff;
      }

      .st4 {
        opacity: .5;
      }

      .st12 {
        opacity: .1;
      }

      .st7 {
        stroke-width: .8px;
      }
    </style>
    <mask id="mask" x="80.3" y="209" width="157.6" height="155.5" maskUnits="userSpaceOnUse">
      <g id="mask0_1_411">
        <path class="st3" d="M84.9,269.1s-5.2-21.9-4.6-34c.6-12.1,11.5-27.6,42-25.9,30.5,1.7,46.6,31.1,44.3,54.7-2.3,23.6,0,69.7,16.1,79.5,16.1,9.8,52.4,2.9,52.4,2.9,0,0,5.2,1.1,1.2,5.2-4,4-37.4,9.8-54.1,12.1-12.7,1.7-44.9.8-59.5.3-7.6-.2-14.7-3.3-20-8.8-2.1-2.3-3.9-4.8-5.2-7.6-8.5-17.8-12.7-78.3-12.7-78.3Z"/>
      </g>
    </mask>
  </defs>
  <g class="st0">
    <path class="st9" d="M387.5,17.6h-146.2l1.5-13.6h146.2l-1.5,13.6Z"/>
    <path class="st9" d="M387.5,36.7h-146.2l1.5-13.6h146.2l-1.5,13.6Z"/>
    <path class="st9" d="M387.5,55.7h-146.2l1.5-13.6h146.2l-1.5,13.6Z"/>
    <path class="st9" d="M387.5,74.7h-146.2l1.5-13.6h146.2l-1.5,13.6Z"/>
    <path class="st9" d="M387.5,93.8h-146.2l1.5-13.6h146.2l-1.5,13.6Z"/>
    <path class="st9" d="M387.5,112.8h-146.2l1.5-13.6h146.2l-1.5,13.6Z"/>
    <path class="st9" d="M387.5,131.8h-146.2l1.5-13.6h146.2l-1.5,13.6Z"/>
    <path class="st9" d="M387.5,150.8h-146.2l1.5-13.6h146.2l-1.5,13.6Z"/>
    <path class="st9" d="M387.5,169.9h-146.2l1.5-13.6h146.2l-1.5,13.6Z"/>
    <path class="st9" d="M387.5,188.9h-146.2l1.5-13.6h146.2l-1.5,13.6Z"/>
    <path class="st9" d="M387.5,207.9h-146.2l1.5-13.6h146.2l-1.5,13.6Z"/>
    <path class="st9" d="M542.1,17.6h-146.2l1.5-13.6h146.2l-1.5,13.6Z"/>
    <path class="st9" d="M542.1,36.7h-146.2l1.5-13.6h146.2l-1.5,13.6Z"/>
    <path class="st9" d="M542.1,55.7h-146.2l1.5-13.6h146.2l-1.5,13.6Z"/>
    <path class="st9" d="M542.1,74.7h-146.2l1.5-13.6h146.2l-1.5,13.6Z"/>
    <path class="st9" d="M542.1,93.8h-146.2l1.5-13.6h146.2l-1.5,13.6Z"/>
    <path class="st9" d="M542.1,112.8h-146.2l1.5-13.6h146.2l-1.5,13.6Z"/>
    <path class="st9" d="M542.1,131.8h-146.2l1.5-13.6h146.2l-1.5,13.6Z"/>
    <path class="st9" d="M542.1,150.8h-146.2l1.5-13.6h146.2l-1.5,13.6Z"/>
    <path class="st9" d="M542.1,169.9h-146.2l1.5-13.6h146.2l-1.5,13.6Z"/>
    <path class="st9" d="M542.1,188.9h-146.2l1.5-13.6h146.2l-1.5,13.6Z"/>
    <path class="st9" d="M542.1,207.9h-146.2l1.5-13.6h146.2l-1.5,13.6Z"/>
  </g>
  <g class="st11">
    <path class="st3" d="M71.4,63h58.5v17.7h-58.5c-2.4,0-4.6-.9-6.3-2.6-1.7-1.7-2.6-3.9-2.6-6.3s.9-4.6,2.6-6.3c1.7-1.7,3.9-2.6,6.3-2.6h0Z"/>
    <path class="st3" d="M129.9,40.8h-58.5c-2.4,0-4.6.9-6.3,2.6-1.7,1.7-2.6,3.9-2.6,6.3s.9,4.6,2.6,6.3c1.7,1.7,3.9,2.6,6.3,2.6h58.5v-17.7Z"/>
    <path class="st3" d="M156.5,20.4h-21.3v59.3h21.3V20.4Z"/>
    <path class="st3" d="M183.1,20.4h-21.3v59.3h21.3V20.4Z"/>
    <path class="st3" d="M209.6,20.4h-21.3v59.3h21.3V20.4Z"/>
  </g>
  <g class="st12">
    <path class="st9" d="M71.4,63h58.5v17.7h-58.5c-2.4,0-4.6-.9-6.3-2.6-1.7-1.7-2.6-3.9-2.6-6.3s.9-4.6,2.6-6.3c1.7-1.7,3.9-2.6,6.3-2.6h0Z"/>
    <path class="st9" d="M129.9,40.8h-58.5c-2.4,0-4.6.9-6.3,2.6-1.7,1.7-2.6,3.9-2.6,6.3s.9,4.6,2.6,6.3c1.7,1.7,3.9,2.6,6.3,2.6h58.5v-17.7Z"/>
    <path class="st9" d="M156.5,20.4h-21.3v59.3h21.3V20.4Z"/>
    <path class="st9" d="M183.1,20.4h-21.3v59.3h21.3V20.4Z"/>
    <path class="st9" d="M209.6,20.4h-21.3v59.3h21.3V20.4Z"/>
  </g>
  <path class="st1" d="M222.5,81.4H55.6v9.9h13.5v24.5h8.1v-24.5h119.8v24.5h8.1v-24.5h17.5v-9.9Z"/>
  <path class="st3" d="M557.7,235s-6,6.9-9.5,20.7,12.1,24.2,6.9,38.9c-5.2,14.7-14.7,21.6-12.1,36.3,2.6,14.7,13.8,15.5,5.2,32-8.6,16.4-16.4,22.5-13.8,38,2.6,15.5,35.4,35.4,35.4,35.4,0,0,22.5-25,23.3-41.5.9-16.4-19.9-26.8-16.4-41.5,3.5-14.7,12.1-26.8,11.2-40.6-.9-13.8-17.3-24.2-17.3-34.5s6.9-16.4,6.9-28.5-15.5-22.5-15.5-29.4c.3-5.3,1.5-10.6,3.5-15.5,0,0-16.4,10.4-7.8,30.2Z"/>
  <path class="st4" d="M557.7,235s-6,6.9-9.5,20.7,12.1,24.2,6.9,38.9c-5.2,14.7-14.7,21.6-12.1,36.3,2.6,14.7,13.8,15.5,5.2,32-8.6,16.4-16.4,22.5-13.8,38,2.6,15.5,35.4,35.4,35.4,35.4,0,0,22.5-25,23.3-41.5.9-16.4-19.9-26.8-16.4-41.5,3.5-14.7,12.1-26.8,11.2-40.6-.9-13.8-17.3-24.2-17.3-34.5s6.9-16.4,6.9-28.5-15.5-22.5-15.5-29.4c.3-5.3,1.5-10.6,3.5-15.5,0,0-16.4,10.4-7.8,30.2Z"/>
  <path class="st6" d="M566.3,431.1l-1.7-186.6"/>
  <path class="st6" d="M583.8,388.4l-16.9,16.9-19.2-16.9"/>
  <path class="st6" d="M578.1,313.9l-12.4,19.2-10.7-17.5"/>
  <path class="st6" d="M557.8,257.5l7.3,9,6.2-10.7"/>
  <path class="st9" d="M587.9,431.1h-43.2v48.4h43.2v-48.4Z"/>
  <path class="st8" d="M378,283.5l16.3,193.5c0,.3.1.6.3.8.2.2.4.5.6.6.2.2.5.3.8.3.3,0,.6,0,.9,0,.5-.1.9-.4,1.2-.8.3-.4.4-.9.4-1.4l-11.1-193h-9.3Z"/>
  <path class="st8" d="M487.2,283.5l16.3,194.1c0,.3.1.6.3.8.2.2.4.5.6.6.2.2.5.3.8.3.3,0,.6,0,.9,0,.5-.1.9-.4,1.2-.8.3-.4.4-.9.4-1.4l-11.1-193.6h-9.3Z"/>
  <path class="st8" d="M203.4,283.5l-8.6,191.8c0,.5,0,1,.4,1.4.3.4.7.7,1.2.8.3,0,.6,0,.9,0,.3,0,.6-.2.8-.3.2-.2.4-.4.6-.6.2-.2.2-.5.3-.8l13.8-192.3h-9.3Z"/>
  <path class="st8" d="M102.8,283.5l-8.6,191.2c0,.5,0,1,.4,1.4.3.4.7.7,1.2.8.3,0,.6,0,.9,0,.3,0,.6-.2.8-.3.2-.2.4-.4.6-.6.2-.2.2-.5.3-.8l13.7-191.8h-9.2Z"/>
  <path class="st2" d="M508.5,272.7H96.7v16.6h411.8v-16.6Z"/>
  <path class="st8" d="M508.5,272.7H96.7v5.7h411.8v-5.7Z"/>
  <path class="st8" d="M508.5,272.7h-144.8v16.6h144.8v-16.6Z"/>
  <path class="st2" d="M513.6,267.2H91.6v6.3h422.1v-6.3Z"/>
  <path class="st8" d="M513.6,267.2h-143.9v6.3h143.9v-6.3Z"/>
  <path class="st8" d="M326.2,245.1l12.6,21.6h-21.6l9.1-21.6Z"/>
  <path class="st8" d="M193.4,266.6h123.7c.5,0,.9-.1,1.3-.4.4-.3.7-.6.9-1.1l34.3-78.1c.2-.4.3-.8.2-1.2,0-.4-.2-.8-.4-1.2-.2-.3-.5-.6-.9-.8-.4-.2-.8-.3-1.2-.3h-123.7c-.5,0-.9.1-1.3.4-.4.3-.7.6-.9,1.1l-34.3,78.1c-.2.4-.3.8-.2,1.2,0,.4.2.8.4,1.2.2.3.5.6.9.8.4.2.8.3,1.2.3Z"/>
  <path class="st2" d="M202.3,263.5h107.1c.4,0,.9-.1,1.2-.4s.7-.6.8-1l31.4-69.8c.1-.3.2-.7.2-1.1,0-.4-.2-.7-.4-1-.2-.3-.5-.6-.8-.7-.3-.2-.7-.3-1.1-.3h-107.1c-.4,0-.9.1-1.2.4-.4.2-.7.6-.8,1l-31.4,69.8c-.2.3-.2.7-.2,1.1,0,.4.1.7.4,1s.5.6.8.7c.3.2.7.3,1.1.3Z"/>
  <path class="st2" d="M288.6,224c11.5,4.6,22,11.5,30.8,20.3l2.7-6,1.7-3.7c-16.3-2.8-22-17.6-37.5-38.3-2.1-2.8-4.7-5.2-7.6-7.2h-45.1c-.4,0-.9.1-1.2.4-.4.2-.7.6-.8,1l-11.7,25.9c32.4,13.7,37.4-4.9,68.7,7.6Z"/>
  <path class="st2" d="M285.5,237.5c-25.3-2.4-75.1,17.4-75.1,17.4l-4.6,8.6h23.7c17.8-6.9,39.1-13.8,52.1-13.4,13.6.4,16.5,7.5,16.9,13.4h3.8c1.9-9.6.6-24.4-16.8-26Z"/>
  <path class="st2" d="M336.5,206.4l3.5-7.7c-1.8-3.2-3.9-6.6-5.9-9.5h-14.3c4.1,4.5,11.1,12.1,16.7,17.2Z"/>
  <path class="st9" d="M464.8,267.7h34.5v-8.8h-34.5v8.8Z"/>
  <path class="st9" d="M482.9,261.9c.9,0,1.7-.3,2.4-.9.6-.6,1-1.4,1.1-2.3l5.8-84c0-.5,0-.9-.2-1.3-.1-.4-.4-.8-.7-1.2-.3-.3-.7-.6-1.1-.8-.4-.2-.8-.3-1.3-.4-.5,0-.9,0-1.3.2-.4.1-.8.4-1.2.7-.3.3-.6.7-.8,1.1-.2.4-.3.9-.4,1.3l-5.8,84c0,.9.2,1.8.8,2.5.6.7,1.5,1.1,2.4,1.2h.2Z"/>
  <path class="st9" d="M489.1,178.8c.7,0,1.4-.2,2-.7.6-.4,1-1,1.3-1.7.2-.7.2-1.4,0-2.1-.2-.7-.7-1.3-1.2-1.7l-56.7-39.9c-.2-.2-.4-.3-.6-.4-.2,0-.5-.1-.7-.1-.3,0-.5,0-.7.2-.2.1-.4.3-.6.5-.2.2-.3.4-.3.7,0,.3,0,.5,0,.8,0,.2.2.5.3.7.2.2.4.4.6.5l54.6,42.7c.6.4,1.3.7,2.1.7Z"/>
  <path class="st9" d="M489.1,180.2c2.9,0,5.3-2.4,5.3-5.3s-2.4-5.3-5.3-5.3-5.3,2.4-5.3,5.3,2.4,5.3,5.3,5.3Z"/>
  <path class="st9" d="M432.5,141.3c2.9,0,5.3-2.4,5.3-5.3s-2.4-5.3-5.3-5.3-5.3,2.4-5.3,5.3,2.4,5.3,5.3,5.3Z"/>
  <path class="st9" d="M410,143.2l20,16,6.7-17.3c.6-1.5.7-3.1.3-4.7-.4-1.6-1.3-2.9-2.6-3.9-1.2-1-2.8-1.6-4.4-1.7-1.6,0-3.2.4-4.5,1.3l-15.5,10.3Z"/>
  <path class="st2" d="M395,266.6h79.1c.3,0,.6,0,.8-.2.3-.2.4-.4.6-.7l21.9-49.9c.1-.2.1-.5.1-.7,0-.3-.1-.5-.2-.7-.1-.2-.3-.4-.6-.5-.2-.1-.5-.2-.7-.2h-79.1c-.3,0-.6,0-.8.3-.2.2-.4.4-.6.7l-21.9,49.9c-.1.2-.1.5-.1.8,0,.3.1.5.3.7s.3.4.6.5.5.2.7.2Z"/>
  <path class="st2" d="M402.5,262.8h67.4c.3,0,.5,0,.7-.2.2-.1.4-.3.5-.6l18.7-42.6c0-.2.1-.4.1-.6,0-.2,0-.4-.2-.6-.1-.2-.3-.3-.5-.4-.2-.1-.4-.2-.6-.2h-67.4c-.3,0-.5,0-.7.2-.2.1-.4.3-.5.6l-18.7,42.6c0,.2-.1.4-.1.6,0,.2,0,.4.2.6.1.2.3.3.5.4.2.1.4.2.6.2Z"/>
  <path class="st2" d="M455,238.4c7.6,2.9,14.6,7.3,20.5,12.9l2.9-6.2c-10.9-1.7-14.6-11.2-25-24.4-.9-1.2-2-2.3-3.2-3.2h-29.1c-.3,0-.5,0-.7.2-.2.1-.4.3-.5.6l-7.2,16.5c18.6,6.1,22.6-3.9,42.3,3.6Z"/>
  <path class="st2" d="M452.9,247c-16.8-1.5-50.1,11.1-50.1,11.1l-1.7,3c0,.2,0,.4,0,.6,0,.2.1.4.2.6.1.2.3.3.5.4s.4.1.6.1h15.3c11.4-4.1,24.4-8,32.5-7.7,8.4.3,10.7,4.1,11.2,7.7h2.8c1.2-6.1,0-14.8-11.2-15.8Z"/>
  <path class="st2" d="M486.5,226.8l2.3-5.2c-.8-1.4-1.7-2.8-2.6-4.1h-9.2c2.7,2.8,6.4,6.5,9.5,9.3Z"/>
  <path class="st2" d="M475.2,263.3h-118.8v3.9h118.8v-3.9Z"/>
  <path class="st2" d="M475.2,263.3h-57.6v3.9h57.6v-3.9Z"/>
  <path class="st2" d="M367.5,236.3h-21v31h21v-31Z"/>
  <path class="st2" d="M366.6,263.1h-2.2c-.5,0-.9-.2-1.2-.5s-.5-.8-.5-1.2.2-.9.5-1.2.8-.5,1.2-.5h2.2c.9,0,1.7-.4,2.3-1,.6-.6,1-1.4,1-2.3v-7.5c0-.9-.3-1.7-1-2.3-.6-.6-1.5-1-2.3-1h-2.8c-.5,0-.9-.2-1.2-.5s-.5-.8-.5-1.2.2-.9.5-1.2.8-.5,1.2-.5h2.8c1.8,0,3.5.7,4.8,2s2,3,2,4.8v7.5c0,1.8-.7,3.5-2,4.8-1.3,1.3-3,2-4.8,2Z"/>
  <path class="st2" d="M224.7,105.3s4.7,14.7,4.7,17.6c0,2.1-.2,4.1-.5,6.2l4.2,6.5c.1.2.2.4.3.7,0,.2,0,.5,0,.7s-.2.5-.3.7c-.1.2-.3.4-.5.5l-6.4,3.8s-.9,15.2-1.9,17.1c-1,1.9-17.1,1.4-17.1,1.4l-5.2,10-27.1-10.5,7.1-19.5-1.4-29.4s16.6-14.8,44.2-5.8Z"/>
  <path class="st3" d="M205.7,141.9l3.8.9c-.2,1.8,0,3.6.4,5.3.5,1.7,1.3,3.3,2.5,4.7"/>
  <path class="st6" d="M205.7,141.9l3.8.9c-.2,1.8,0,3.6.4,5.3.5,1.7,1.3,3.3,2.5,4.7"/>
  <path class="st6" d="M210.1,131.7l26.7-6.6"/>
  <path class="st6" d="M229.9,124.6l6.1.3s2.1,6.9-4.2,7.7"/>
  <path class="st8" d="M193.3,94.5s-10.4-3.3-15.7,10.9c-5.3,14.3,4.3,32.8,4.3,35.1s8.1,4.3,14.2,4.3c3.4.1,6.7-.9,9.5-2.9,0,0-2.4-9.5-.5-11.4s6.7,2.4,6.7,2.4c1.5-.2,2.9-.7,4.3-1.4,1.4-.9,8.6-4.8,6.2-9-2.4-4.3-7.1-8.1-3.3-10.9,3.8-2.9,13.8-3.3,14.2-12.4.4-9-5.2-10.9-10.9-10-5.7.9-3.8-8.1-14.7-6.6-10.9,1.4-16.1,7.5-14.2,11.9Z"/>
  <path class="st5" d="M195,126.7c-.8,1.4-1.3,2.9-1.7,4.5"/>
  <path class="st5" d="M219.3,109.8s-3.3,2.9-13.6,7c-3.7,1.4-6.8,3.9-9,7.2"/>
  <path class="st5" d="M218.5,117.6s-12,7.9-17.3,9.5"/>
  <path class="st8" d="M304.6,192.5c5.1,8,11.3,15.4,18.2,22,0,0-6.6-14.7-16.4-23.4-.9-.8-2.4.5-1.8,1.5Z"/>
  <path class="st2" d="M266.5,249.5l35-26.3s0-12.1,1.7-14.7c1.7-2.6,16-6.9,16-6.9,0,0,3.9-4.8,6,0,.6,1.4.9,2.9.7,4.4-.2,1.5-.7,3-1.6,4.2.2,3.5.2,6.9,0,10.4-.4,2.6-15.5,9.1-15.5,9.1,0,0-20.7,30.7-31.1,39.3-10.4,8.6-12.5,10.4-16.8,12.1-4.3,1.7-12.1-10.8-12.1-10.8l17.7-20.7Z"/>
  <path class="st8" d="M203,451.7s24.6,15.5,28.9,15.5,6.5,3.9,4.3,4.3c-2.2.4-15.5.9-24.6,1.3-9.1.4-15.1-.4-20.3-.4s-11.2.4-13.8-.9c-2.6-1.3,1.7-16,1.7-18.6s20.7-3,23.8-1.3Z"/>
  <path class="st2" d="M234.7,467.8c-9.6,3.2-25,1.1-34.3.2-7.4-.7-18.8-.8-23.6-.9-.2,2.2,0,3.9.8,4.3,2.6,1.3,8.6.9,13.8.9s11.2.9,20.3.4c9.1-.4,22.5-.9,24.6-1.3,1.6-.3.8-2.6-1.5-3.7Z"/>
  <path class="st2" d="M222.4,345l-19.4,97.3,4,10.1c-2.9,4.2-7.3,7.2-12.3,8.3-5.6,1.1-11.2,1.7-16.8,1.7,0,0-2.2-10.8-.9-12.1,1.3-1.3,1.7-6.5,1.7-6.5l11.2-98,32.4-.9Z"/>
  <path class="st8" d="M281.6,448.4s15.1,12.5,22,14.7c6.9,2.2,14.3,4.3,14.3,6.5s-16.4,4.3-28.9,3c-12.5-1.3-31.5-6.9-35.8-6.9s-3.5-11.2-3.5-13,21.2-15.5,32-4.3Z"/>
  <path class="st2" d="M317.9,469.5c0-.8-1-1.6-2.5-2.3-12.4,1.7-24.9,1.6-37.2-.3-9.5-1.3-18.9-3.2-28.2-5.5.4,2.3,1.3,4.2,3.1,4.2,4.3,0,23.3,5.6,35.8,6.9,12.5,1.3,28.9-.9,28.9-3Z"/>
  <path class="st2" d="M206.4,301.3c13-1,26-.7,38.9.9,22,2.6,54.4,5.6,55.3,11.2.9,5.6-21.4,122.5-21.4,125.5s3.5,6,4.3,7.8c.5,1.2.8,2.5.9,3.9,0,0-10.6,11.4-18.8,14.4-8.2,3-15.1.2-16.8.2s-1.7-11.7-.4-17.3c1.3-5.6,3.5-19.9,3.9-21.2.4-1.3,7.3-84.4,7.3-84.4,0,0-47.5,10.4-85.9,6-38.4-4.3-42.3-10.4-44.5-19.4-2.2-9.1,2.2-27.2,2.2-27.2l75.1-.4Z"/>
  <path class="st6" d="M201.6,329.3c-.9,1.3-1.8,2.5-2.9,3.6"/>
  <path class="st6" d="M213.3,306.1c-2.5,6.2-5.4,12.3-8.6,18.1"/>
  <path class="st6" d="M208.2,310.4c-5.2,8.6-13.1,15.3-22.5,19"/>
  <path class="st3" d="M289.4,334.2c1.5-.6,2.9-1.2,4.2-1.7l-4.2,1.7Z"/>
  <path class="st6" d="M289.4,334.2c1.5-.6,2.9-1.2,4.2-1.7"/>
  <path class="st3" d="M259.6,342.4c8.3-1.6,16.4-3.7,24.5-6.3l-24.5,6.3Z"/>
  <path class="st6" d="M259.6,342.4c8.3-1.6,16.4-3.7,24.5-6.3"/>
  <path class="st8" d="M170.2,157.5s-33.7,16-38.4,19c-4.8,3-7.8,40.6-7.8,47.1s4.8,70,6,80.8c1.3,10.8,42.8,18.1,56.6,14.3,13.8-3.9,27.2-13.8,27.2-17.3s-1.3-32.8-.4-38.4c.9-5.6,8.6-29.4,8.6-29.4l14.7,41.9c6.2-1.6,12.2-3.7,18.1-6,12.5-5.2,15.5-22.5,15.5-22.5,0,0-13.8-24.2-17.7-36.3-3.9-12.1-5.6-21.2-7.3-23.3-1.7-2.2-40.6-20.3-47.5-25-3.9-2.9-8.4-4.9-13.2-5.7-4.8-.8-9.7-.5-14.4,1Z"/>
  <path class="st7" d="M222,233.5l-11.2-16.4"/>
  <path class="st7" d="M220.1,231.2l-19.8-9.8"/>
  <path class="st8" d="M161.6,355l17.3,122.7c0,.3.1.6.3.8.2.2.4.5.6.6.2.2.5.3.8.3.3,0,.6,0,.9,0,.5-.1.9-.4,1.2-.8.3-.4.4-.9.4-1.4l-12.1-124.2-9.3,2Z"/>
  <path class="st8" d="M112,356l-28.8,120.5c0,.3,0,.6,0,.9,0,.3.2.6.3.8.2.2.4.4.6.6.2.2.5.2.8.3.5,0,1,0,1.4-.3.4-.3.7-.7.9-1.2l33.5-116.9-8.7-4.6Z"/>
  <path class="st8" d="M164.4,354.5l-18.3,122.5c0,.3,0,.6,0,.9,0,.3.2.5.4.8.2.2.4.4.7.5.3.1.5.2.8.2.5,0,1-.1,1.4-.5.4-.3.7-.8.7-1.3l23.3-119.3-9-3.9Z"/>
  <path class="st8" d="M213.9,355l17.3,122.7c0,.3.1.6.3.8.2.2.4.5.6.6.2.2.5.3.8.3.3,0,.6,0,.9,0,.5-.1.9-.4,1.2-.8.3-.4.4-.9.4-1.4l-12.1-124.2-9.3,2Z"/>
  <path class="st3" d="M84.9,269.1s-5.2-21.9-4.6-34c.6-12.1,11.5-27.6,42-25.9,30.5,1.7,46.6,31.1,44.3,54.7-2.3,23.6,0,69.7,16.1,79.5,16.1,9.8,52.4,2.9,52.4,2.9,0,0,5.2,1.1,1.2,5.2-4,4-37.4,9.8-54.1,12.1-12.7,1.7-44.9.8-59.5.3-7.6-.2-14.7-3.3-20-8.8-2.1-2.3-3.9-4.8-5.2-7.6-8.5-17.8-12.7-78.3-12.7-78.3Z"/>
  <g class="st10">
    <g>
      <path class="st3" d="M182.2,363.5c4.1-.6,9.2-1.3,14.6-2.2-6.5-.3-12.9-1.9-18.9-4.6-18-9.4-20.6-53.8-18-76.6s-15.5-51-49.6-52.7c-12.7-.6-22.5,1.1-29.5,4-.3,1.2-.4,2.4-.5,3.7-.6,12.1,4.6,34,4.6,34,0,0,4.2,60.5,12.7,78.3,1.3,2.8,3.1,5.4,5.2,7.6,5.2,5.4,12.4,8.6,20,8.8,14.6.5,46.7,1.5,59.5-.3Z"/>
      <path class="st4" d="M182.2,363.5c4.1-.6,9.2-1.3,14.6-2.2-6.5-.3-12.9-1.9-18.9-4.6-18-9.4-20.6-53.8-18-76.6s-15.5-51-49.6-52.7c-12.7-.6-22.5,1.1-29.5,4-.3,1.2-.4,2.4-.5,3.7-.6,12.1,4.6,34,4.6,34,0,0,4.2,60.5,12.7,78.3,1.3,2.8,3.1,5.4,5.2,7.6,5.2,5.4,12.4,8.6,20,8.8,14.6.5,46.7,1.5,59.5-.3Z"/>
    </g>
  </g>
  <path class="st6" d="M84.9,269.1s-5.2-21.9-4.6-34c.6-12.1,11.5-27.6,42-25.9,30.5,1.7,46.6,31.1,44.3,54.7-2.3,23.6,0,69.7,16.1,79.5,16.1,9.8,52.4,2.9,52.4,2.9,0,0,5.2,1.1,1.2,5.2-4,4-37.4,9.8-54.1,12.1-12.7,1.7-44.9.8-59.5.3-7.6-.2-14.7-3.3-20-8.8-2.1-2.3-3.9-4.8-5.2-7.6-8.5-17.8-12.7-78.3-12.7-78.3Z"/>
  <path class="st9" d="M621,473.5H25.8v9.4h595.2v-9.4Z"/>
</svg>